<?xml version="1.0" encoding="UTF-8" standalone="no"?>
<svg
   viewBox="0 0 200 132.49914"
   version="1.1"
   id="svg30"
   sodipodi:docname="logo.svg"
   inkscape:version="1.2.2 (b0a8486541, 2022-12-01)"
   width="200"
   height="132.49915"
   xmlns:inkscape="http://www.inkscape.org/namespaces/inkscape"
   xmlns:sodipodi="http://sodipodi.sourceforge.net/DTD/sodipodi-0.dtd"
   xmlns="http://www.w3.org/2000/svg"
   xmlns:svg="http://www.w3.org/2000/svg">
  <defs
     id="defs34" />
  <sodipodi:namedview
     id="namedview32"
     pagecolor="#ffffff"
     bordercolor="#666666"
     borderopacity="1.0"
     inkscape:showpageshadow="2"
     inkscape:pageopacity="0.0"
     inkscape:pagecheckerboard="0"
     inkscape:deskcolor="#d1d1d1"
     showgrid="false"
     inkscape:zoom="3.5856363"
     inkscape:cx="59.264237"
     inkscape:cy="52.013084"
     inkscape:window-width="1920"
     inkscape:window-height="1166"
     inkscape:window-x="0"
     inkscape:window-y="2194"
     inkscape:window-maximized="1"
     inkscape:current-layer="g1766" />
  <g
     id="g1766"
     transform="rotate(-53.090858,18.65009,12.427573)">
    <g
       id="g1898"
       transform="matrix(4.6874144,0,0,4.6874144,-64.112219,36.683073)">
      <g
         id="g878"
         style="fill:#d9eefd;fill-opacity:1;stroke-width:1.00001"
         transform="matrix(0.99998487,0,0,0.99998487,2.631038e-4,-1.508517e-4)">
        <path
           fill="#5C913B"
           d="M 6.032,6.345 C 5.623,6.345 5.24,6.092 5.092,5.686 5.076,5.644 4.217,3.433 2.678,3.25 2.13,3.185 1.738,2.687 1.803,2.139 1.868,1.591 2.37,1.206 2.914,1.264 5.716,1.597 6.923,4.867 6.973,5.006 7.16,5.525 6.89,6.098 6.37,6.285 6.258,6.325 6.144,6.345 6.032,6.345 Z"
           id="path2"
           style="fill:#d9eefd;fill-opacity:1;stroke-width:1.00001" />
        <path
           fill="#5C913B"
           d="M 7.902,6.501 C 7.815,6.501 7.726,6.489 7.638,6.465 7.106,6.321 6.792,5.772 6.936,5.241 6.946,5.201 7.514,2.895 6.358,1.861 5.946,1.493 5.911,0.861 6.279,0.449 6.647,0.038 7.28,0.002 7.691,0.371 9.794,2.252 8.905,5.622 8.866,5.765 8.745,6.209 8.342,6.501 7.902,6.501 Z"
           id="path4"
           style="fill:#d9eefd;fill-opacity:1;stroke-width:1.00001" />
        <path
           fill="#5C913B"
           d="M 10.348,6.544 C 10.198,6.544 10.045,6.51 9.901,6.438 9.408,6.191 9.208,5.592 9.454,5.099 9.465,5.078 10.487,2.917 9.554,1.671 9.223,1.229 9.313,0.602 9.756,0.271 c 0.442,-0.33 1.068,-0.24 1.4,0.202 1.69,2.259 0.154,5.387 0.088,5.52 -0.176,0.349 -0.529,0.551 -0.896,0.551 z"
           id="path6"
           style="fill:#d9eefd;fill-opacity:1;stroke-width:1.00001" />
        <path
           fill="#5C913B"
           d="M 12.624,6.486 C 12.399,6.486 12.173,6.411 11.987,6.257 11.562,5.905 11.503,5.277 11.852,4.851 11.877,4.82 13.346,2.953 12.719,1.534 12.496,1.029 12.724,0.439 13.23,0.216 c 0.504,-0.224 1.095,0.005 1.318,0.511 1.14,2.581 -1.059,5.284 -1.153,5.398 -0.198,0.238 -0.483,0.361 -0.771,0.361 z"
           id="path8"
           style="fill:#d9eefd;fill-opacity:1;stroke-width:1.00001" />
        <path
           fill="#5C913B"
           d="m 15.28,6.428 c -0.281,0 -0.561,-0.118 -0.759,-0.348 -0.359,-0.418 -0.312,-1.048 0.104,-1.409 0.03,-0.027 1.792,-1.62 1.412,-3.124 -0.135,-0.536 0.189,-1.079 0.725,-1.214 0.536,-0.133 1.08,0.189 1.214,0.725 0.69,2.736 -1.933,5.031 -2.045,5.128 -0.188,0.163 -0.42,0.242 -0.651,0.242 z m 2.971,0.408 c -0.354,0 -0.697,-0.188 -0.878,-0.521 -0.264,-0.484 -0.087,-1.09 0.395,-1.355 0.021,-0.012 2.09,-1.205 2.035,-2.761 -0.021,-0.552 0.411,-1.016 0.963,-1.036 0.556,-0.008 1.015,0.411 1.035,0.963 0.103,2.819 -2.941,4.516 -3.071,4.586 -0.152,0.085 -0.316,0.124 -0.479,0.124 z m 3.162,1.074 c -0.441,0 -0.847,-0.296 -0.966,-0.743 -0.142,-0.533 0.175,-1.08 0.707,-1.223 0.048,-0.013 2.319,-0.682 2.632,-2.198 0.111,-0.542 0.64,-0.89 1.182,-0.777 0.541,0.112 0.889,0.641 0.777,1.182 -0.57,2.763 -3.931,3.688 -4.074,3.726 -0.086,0.021 -0.172,0.033 -0.258,0.033 z m 3.13,1.755 c -0.51,0 -0.945,-0.388 -0.994,-0.906 -0.053,-0.549 0.35,-1.036 0.897,-1.089 0.032,-0.003 2.397,-0.284 2.959,-1.734 0.199,-0.515 0.777,-0.769 1.294,-0.571 0.515,0.2 0.771,0.779 0.571,1.294 -1.02,2.631 -4.485,2.988 -4.632,3.002 -0.032,0.003 -0.064,0.004 -0.095,0.004 z m 3.083,3.67 c -0.265,0 -0.436,-0.014 -0.466,-0.017 -0.55,-0.05 -0.956,-0.536 -0.906,-1.086 0.05,-0.549 0.548,-0.958 1.083,-0.906 0.049,0.003 2.412,0.154 3.226,-1.162 0.291,-0.47 0.909,-0.614 1.376,-0.325 0.471,0.291 0.615,0.907 0.325,1.376 -1.179,1.908 -3.614,2.12 -4.638,2.12 z m 3.551,4.541 c -1.004,0 -1.783,-0.21 -1.85,-0.229 -0.532,-0.148 -0.844,-0.699 -0.696,-1.231 0.149,-0.531 0.703,-0.841 1.229,-0.696 0.023,0.006 2.34,0.594 3.383,-0.561 0.371,-0.411 1.004,-0.442 1.413,-0.071 0.409,0.37 0.441,1.002 0.071,1.412 -1.003,1.109 -2.419,1.376 -3.55,1.376 z m 1.515,5.104 c -1.597,0 -2.987,-0.719 -3.074,-0.765 -0.488,-0.258 -0.676,-0.862 -0.418,-1.352 0.258,-0.487 0.859,-0.676 1.349,-0.419 0.021,0.011 2.16,1.078 3.426,0.17 0.448,-0.321 1.074,-0.217 1.396,0.231 0.321,0.449 0.218,1.073 -0.231,1.396 -0.774,0.554 -1.637,0.739 -2.448,0.739 z m 0.162,4.475 c -2.046,0 -3.795,-1.495 -3.886,-1.573 -0.417,-0.362 -0.461,-0.994 -0.099,-1.411 0.363,-0.417 0.992,-0.46 1.409,-0.101 0.043,0.037 1.867,1.535 3.295,0.947 0.51,-0.21 1.095,0.03 1.306,0.542 0.211,0.511 -0.031,1.096 -0.542,1.306 -0.499,0.206 -1,0.29 -1.483,0.29 z m -1.083,4.305 c -2.807,0 -4.401,-3.076 -4.468,-3.207 -0.25,-0.493 -0.054,-1.095 0.438,-1.345 0.493,-0.25 1.091,-0.055 1.344,0.437 0.015,0.028 1.138,2.115 2.687,2.115 h 0.018 c 0.55,0 0.996,0.443 1,0.993 0.004,0.553 -0.441,1.003 -0.993,1.007 z m -6.809,4.129 c -0.206,0 -0.413,-0.063 -0.592,-0.194 -2.272,-1.673 -1.709,-5.111 -1.684,-5.257 0.095,-0.544 0.61,-0.905 1.155,-0.815 0.543,0.094 0.908,0.609 0.816,1.152 -0.006,0.034 -0.354,2.389 0.897,3.309 0.444,0.327 0.54,0.953 0.213,1.398 -0.195,0.266 -0.497,0.407 -0.805,0.407 z m 3.585,-1.108 c -0.132,0 -0.265,-0.025 -0.393,-0.08 -2.595,-1.108 -2.834,-4.584 -2.843,-4.731 -0.033,-0.552 0.387,-1.025 0.938,-1.059 0.545,-0.032 1.023,0.384 1.059,0.935 0.002,0.03 0.202,2.405 1.632,3.016 0.508,0.217 0.744,0.805 0.527,1.312 -0.162,0.38 -0.532,0.607 -0.92,0.607 z m -11.075,0.031 c -0.487,0 -0.914,-0.357 -0.988,-0.854 -0.413,-2.791 2.425,-4.813 2.546,-4.898 0.45,-0.316 1.076,-0.207 1.393,0.246 0.316,0.451 0.207,1.074 -0.244,1.391 -0.045,0.033 -1.942,1.439 -1.716,2.969 0.081,0.547 -0.296,1.055 -0.843,1.136 -0.05,0.006 -0.099,0.01 -0.148,0.01 z"
           id="path10"
           style="fill:#d9eefd;fill-opacity:1;stroke-width:1.00001" />
        <path
           fill="#5C913B"
           d="m 20.883,35.956 c -0.359,0 -0.707,-0.194 -0.886,-0.534 -1.315,-2.496 0.693,-5.345 0.779,-5.465 0.322,-0.45 0.945,-0.553 1.396,-0.229 0.448,0.321 0.551,0.944 0.231,1.394 -0.023,0.032 -1.359,1.996 -0.637,3.369 0.258,0.488 0.07,1.094 -0.419,1.351 -0.148,0.077 -0.307,0.114 -0.464,0.114 z M 14.049,32.01 c -0.072,0 -0.145,-0.008 -0.218,-0.023 -0.539,-0.12 -0.879,-0.654 -0.759,-1.193 0.612,-2.755 3.986,-3.628 4.129,-3.663 0.535,-0.134 1.079,0.19 1.213,0.728 0.134,0.534 -0.19,1.076 -0.725,1.212 -0.023,0.006 -2.327,0.638 -2.665,2.157 -0.104,0.464 -0.517,0.782 -0.975,0.782 z m -1.665,-3.622 c -0.129,0 -0.26,-0.024 -0.386,-0.078 -0.509,-0.213 -0.749,-0.8 -0.536,-1.309 1.091,-2.602 4.566,-2.862 4.714,-2.872 0.537,-0.03 1.027,0.381 1.064,0.932 0.037,0.55 -0.378,1.025 -0.928,1.064 -0.033,0.002 -2.404,0.217 -3.005,1.649 -0.161,0.383 -0.532,0.614 -0.923,0.614 z m -1.363,-4.306 c -0.209,0 -0.421,-0.065 -0.601,-0.202 -0.441,-0.332 -0.529,-0.959 -0.196,-1.4 1.699,-2.252 5.131,-1.649 5.276,-1.622 0.543,0.101 0.902,0.622 0.802,1.165 -0.1,0.542 -0.619,0.9 -1.162,0.803 -0.022,-0.005 -2.383,-0.383 -3.32,0.859 -0.196,0.26 -0.496,0.397 -0.799,0.397 z m -1.76,-3.399 c -0.185,0 -0.372,-0.051 -0.539,-0.158 -0.465,-0.298 -0.601,-0.916 -0.302,-1.381 1.522,-2.377 4.991,-2.036 5.138,-2.02 0.549,0.059 0.947,0.551 0.888,1.1 -0.058,0.549 -0.545,0.938 -1.098,0.889 -0.05,-0.01 -2.409,-0.195 -3.245,1.108 -0.19,0.3 -0.512,0.462 -0.842,0.462 z M 6.353,18.274 c -0.121,0 -0.244,-0.022 -0.364,-0.069 -0.514,-0.201 -0.768,-0.781 -0.567,-1.295 1.027,-2.628 4.495,-2.973 4.642,-2.987 0.553,-0.039 1.037,0.355 1.087,0.905 0.05,0.549 -0.354,1.035 -0.902,1.086 -0.037,0.004 -2.399,0.278 -2.964,1.724 -0.155,0.395 -0.532,0.636 -0.932,0.636 z M 2.89,15.691 C 2.769,15.691 2.646,15.669 2.526,15.622 2.012,15.421 1.758,14.841 1.959,14.327 2.986,11.699 6.454,11.354 6.601,11.34 7.157,11.301 7.638,11.695 7.688,12.245 7.738,12.794 7.334,13.28 6.786,13.331 6.749,13.335 4.387,13.609 3.822,15.055 3.667,15.449 3.29,15.691 2.89,15.691 Z"
           id="path12"
           style="fill:#d9eefd;fill-opacity:1;stroke-width:1.00001" />
        <path
           fill="#5C913B"
           d="M 5.828,11.457 C 5.661,11.457 5.492,11.415 5.337,11.328 5.316,11.316 3.214,10.181 1.919,11.047 1.46,11.352 0.839,11.23 0.532,10.771 0.225,10.312 0.348,9.691 0.808,9.384 3.153,7.816 6.196,9.516 6.325,9.589 6.804,9.862 6.972,10.473 6.699,10.953 6.514,11.275 6.176,11.457 5.828,11.457 Z M 5.407,8.839 C 5.123,8.839 4.841,8.718 4.643,8.485 4.613,8.452 3.044,6.673 1.535,7.037 0.995,7.163 0.458,6.834 0.329,6.298 0.201,5.761 0.531,5.221 1.068,5.092 3.817,4.437 6.076,7.083 6.172,7.196 6.527,7.619 6.473,8.25 6.05,8.605 5.862,8.762 5.634,8.839 5.407,8.839 Z"
           id="path14"
           style="fill:#d9eefd;fill-opacity:1;stroke-width:1.00001" />
      </g>
      <path
         id="path1820"
         style="fill:#d2f1dd"
         d="m 12.802734,3.4394531 c -2.1271,0 -4.0192196,0.3749174 -5.5136715,0.9667969 -1.4944519,0.5918795 -2.7545394,1.2402232 -3.1972656,2.78125 -0.418404,1.45598 -0.099924,2.927456 0.6367187,3.947266 0.7366422,1.019809 1.7232793,1.69197 2.7226563,2.365234 1.9987539,1.346529 4.0939651,2.632252 5.2265621,4.984375 a 1.4822982,1.4822982 0 0 0 0.08399,0.152344 c 1.381041,2.176095 1.955742,5.328051 2.923828,8.160156 0.484043,1.416053 1.079688,2.784601 2.128906,3.878906 1.049219,1.094306 2.604393,1.798828 4.4375,1.798828 h 0.0098 a 1.4822982,1.4822982 0 0 0 0.002,0 c 3.534712,-0.0049 6.577655,-3.14706 7.896484,-7.345703 1.31883,-4.198643 0.796544,-9.711034 -3.265625,-14.853515 a 1.4822982,1.4822982 0 0 0 -0.01758,-0.02344 C 22.668561,5.1384618 17.213146,3.4394531 12.802734,3.4394531 Z" />
      <circle
         fill="#3E721D"
         cx="23"
         cy="24"
         r="3"
         id="circle20"
         style="fill:#d1d1d1;fill-opacity:0.772408;stroke-width:0.999999" />
      <circle
         fill="#C6E5B3"
         cx="24"
         cy="17"
         r="2"
         id="circle22"
         style="fill:#ffffff;fill-opacity:1;stroke-width:0.999999" />
      <circle
         fill="#C6E5B3"
         cx="17"
         cy="15.000001"
         r="2"
         id="circle24"
         style="fill:#ffffff;fill-opacity:1;stroke-width:0.999999" />
      <circle
         fill="#C6E5B3"
         cx="20"
         cy="10.000001"
         r="1"
         id="circle26"
         style="fill:#ffffff;fill-opacity:1;stroke-width:0.999999" />
      <circle
         fill="#C6E5B3"
         cx="11"
         cy="8"
         r="1"
         id="circle28"
         style="fill:#ffffff;fill-opacity:1;stroke-width:0.999999" />
      <path
         id="path882"
         style="fill:none;fill-opacity:0.339463;stroke:#565656;stroke-width:2.1;stroke-linecap:butt;stroke-linejoin:round;stroke-dasharray:2.72999, 1.47;stroke-dashoffset:0;stroke-opacity:1"
         d="m 12.802734,3.8828124 c -1.880034,0 -3.8900249,0.3444697 -5.4472653,0.9765625 C 5.7982284,5.4914679 4.7826542,6.3833897 4.5156251,7.3125 c -0.4701189,1.6361173 -0.123819,2.6466633 0.6015624,3.603516 0.7253813,0.956852 1.9154694,1.774057 3.0605469,2.537109 1.7503996,1.166599 3.7638446,2.47755 4.9003906,4.837892 l 0.02539,0.05469 0.03125,0.04883 a 0.96165271,0.96165271 0 0 1 0.002,0.0019 c 1.08954,1.71675 1.658982,3.795344 2.207031,5.728516 0.543012,1.917042 1.147847,3.97133 2.167969,5.457032 1.020122,1.4857 2.325104,2.449218 4.740234,2.449218 2.453128,-0.0043 5.202391,-1.991392 6.783203,-5.259765 C 31.482743,21.71096 30.606026,15.69692 26.554688,10.560547 21.733153,4.7070032 15.876574,3.8828124 12.802734,3.8828124 Z" />
    </g>
  </g>
</svg>
